<?xml version="1.0" standalone="no"?>
<!DOCTYPE svg PUBLIC "-//W3C//DTD SVG 20010904//EN"
 "http://www.w3.org/TR/2001/REC-SVG-20010904/DTD/svg10.dtd">
<svg version="1.0" xmlns="http://www.w3.org/2000/svg"
 width="1536.000000pt" height="1536.000000pt" viewBox="0 0 1536.000000 1536.000000"
 preserveAspectRatio="xMidYMid meet">
<metadata>
Created by potrace 1.11, written by Peter Selinger 2001-2013
</metadata>
<g transform="translate(0.000000,1536.000000) scale(0.100000,-0.100000)"
fill="#000000" stroke="none">
<path d="M0 6895 l0 -6895 7680 0 7680 0 0 6895 0 6895 -7680 0 -7680 0 0
-6895z m8985 5440 c124 -46 187 -104 402 -371 76 -93 253 -311 393 -483 140
-173 332 -409 425 -525 185 -229 299 -370 675 -831 134 -165 322 -396 417
-512 365 -449 527 -647 743 -913 123 -151 343 -421 488 -600 145 -179 327
-403 405 -499 156 -192 190 -240 247 -351 51 -102 70 -170 70 -257 0 -154 -91
-249 -295 -310 -57 -17 -264 -18 -4105 -23 -3828 -5 -4049 -4 -4119 13 -310
73 -403 276 -242 524 21 32 166 218 322 414 156 196 476 596 710 890 234 294
702 881 1040 1304 338 424 722 905 854 1070 1122 1409 1058 1333 1161 1402 91
61 158 82 256 83 69 0 101 -5 153 -25z m-3270 -1005 c70 -33 137 -101 291
-290 56 -69 158 -195 228 -280 69 -85 126 -157 126 -160 0 -5 -471 -597 -1863
-2339 -353 -442 -657 -827 -676 -855 -83 -128 -141 -302 -141 -428 l0 -69
-657 3 -658 3 -62 25 c-141 57 -201 132 -190 237 3 30 18 80 32 109 15 30 133
188 264 351 130 164 443 557 696 873 1736 2175 1966 2463 2063 2588 122 155
231 242 331 263 61 13 151 0 216 -31z m-1604 -4960 c35 -16 105 -41 154 -56
88 -27 98 -28 383 -32 l292 -4 0 -1109 0 -1109 -920 0 -920 0 0 1170 0 1170
474 0 474 0 63 -30z m7909 -1870 l0 -1500 -3175 0 -3175 0 0 1493 c0 822 3
1497 7 1500 3 4 1432 7 3175 7 l3168 0 0 -1500z"/>
</g>
</svg>
