<?xml version="1.0" encoding="UTF-8" standalone="no"?>
<!DOCTYPE svg PUBLIC "-//W3C//DTD SVG 1.1//EN" "http://www.w3.org/Graphics/SVG/1.1/DTD/svg11.dtd">
<svg width="100%" height="100%" viewBox="0 0 1200 690" version="1.1" xmlns="http://www.w3.org/2000/svg" xmlns:xlink="http://www.w3.org/1999/xlink" xml:space="preserve" xmlns:serif="http://www.serif.com/" style="fill-rule:evenodd;clip-rule:evenodd;stroke-linecap:round;stroke-linejoin:round;stroke-miterlimit:1.5;">
    <g id="BG" transform="matrix(0.42373,0,0,0.33971,-157.567,-76.9297)">
        <rect x="371.856" y="226.457" width="2831.97" height="2029.38" style="fill:rgb(235,235,235);"/>
    </g>
    <g id="street" transform="matrix(0.20957,0,0,0.20957,2.35401,-82.9047)">
        <path d="M-4.13,2003.38C-4.13,2003.38 352.917,1853.08 563.214,1824.39C773.511,1795.7 1047.07,1769.45 1191.18,1493.31C1233.42,1392.69 1236.15,1334.93 1109.83,1276.19C983.511,1217.46 954.597,956.914 966.081,911.492C977.566,866.07 1046.22,716.375 1089.88,682.609C1133.53,648.844 1205.99,620.031 1263.59,705.477C1321.19,790.922 1221.1,893.164 1135.48,871.992C1049.86,850.82 1032.47,903.102 1032,954.789C1031.53,1006.48 1022.46,1151.54 1216.73,1260.68C1277.84,1295.01 1308.47,1249.34 1282.14,1179.3C1267.07,1149.59 1247.58,1154.71 1227.52,1191.52C1180.39,1163.88 1092.29,1095.81 1098.73,970.82C1140.5,970.508 1154.89,969.925 1153.22,952.576C1166,951.065 1203.32,947.794 1203.32,947.794C1203.32,947.794 1200.48,961 1220.79,958.854C1241.1,956.708 1258.57,956.708 1258.57,956.708C1258.57,956.708 1259.72,1038.09 1312.71,1055.45C1302.52,1068.43 1297.62,1076.85 1291.42,1085.59C1285.21,1094.33 1293.2,1103.22 1302.87,1109.69C1312.55,1116.17 1350.16,1140.87 1356.14,1197.13C1363.56,1226.73 1374.11,1256.86 1380.58,1279.97C1408.67,1332.49 1420.32,1320.96 1438.06,1326.04C1455.79,1331.12 1598.75,1371.1 1623.15,1376.8C1647.55,1382.5 1701.11,1393.93 1723.9,1330.81C1746.7,1267.69 1783.99,1120.21 1825,1022.82C1866.02,925.427 1985.65,677.859 2028.44,620.26C2055.53,633.409 2090.17,655.013 2090.17,655.013C2090.17,655.013 1992.68,822.841 1943.82,930.284C1894.96,1037.73 1867.63,1091.72 1844.31,1169.69C1820.98,1247.66 1802.97,1289.67 1795.22,1322.35C1777.23,1381.44 1784.13,1423.41 1870.66,1455.9C1901.59,1469.9 2053.3,1553.87 2137.97,1605.35C2210.93,1651.41 2248.49,1631.97 2298.24,1560.77C2348.01,1489.57 2371.54,1454.28 2392.37,1443.18C2413.19,1432.09 2430.69,1388.76 2432.61,1369.13C2434.52,1349.51 2462.99,1279.44 2560.83,1289.47C2623.03,1295.85 2660.99,1379.45 2642.9,1432.74C2624.82,1486.02 2576.94,1513.73 2528.9,1510.73C2480.87,1507.74 2441.83,1475.29 2406.56,1523.51C2371.3,1571.72 2292.66,1668.34 2302.3,1688.65C2311.93,1708.96 2309.92,1724.53 2360.72,1759.06C2411.52,1793.59 2844.59,2099.37 2844.59,2099.37C2844.59,2099.37 2917.47,2171.48 2965.93,2096.88C3014.39,2022.27 3060.56,1945.77 3076.35,1918.22C3092.14,1890.67 3087.75,1869.07 3087.61,1846.12C3087.47,1823.18 3098.2,1742.4 3203.74,1737.33C3295.05,1751.18 3307.16,1836.2 3302.16,1858.66C3297.17,1881.13 3279.13,1956.79 3179.69,1952.08C3144.93,1954.07 3120.12,1956.1 3104.53,1982.26C3088.95,2008.42 3031.64,2093.87 3018.32,2119.78C3005,2145.68 2988.56,2195.26 3061.75,2228.31C3134.95,2261.37 3563.75,2432.64 3600.26,2445.08C3636.77,2457.52 3759.16,2515.19 3842.18,2565.72C4013.91,2685.51 4038.74,2731.04 4133.62,2818.69C4228.51,2906.34 4295.79,2967.86 4363.67,3000.96C4431.54,3034.05 4457.93,3010.34 4481.44,2974.77C4660.11,2728.34 4671.09,2468.29 4398.68,2252.48C4378.68,2235.29 4300.11,2211.46 4226.05,2171.92C4151.99,2132.38 4147.65,2060.56 4198.2,1999.68C4248.75,1938.79 4340.51,1969.58 4367.59,2019.98C4394.67,2070.39 4377.69,2105.57 4376.38,2132.39C4375.07,2159.2 4370.26,2177.49 4444.16,2210.73C4494.99,2251.18 4820.29,2485.47 4576.35,2935.67C4541.83,2988.89 4491.58,3059.35 4591.31,3097.24C4691.05,3135.12 4871.98,3173.65 4943.96,3210.86C5015.93,3248.07 5083.37,3235.93 5142.87,3153.04C5202.38,3070.15 5271.82,2983.09 5304.35,2942.1C5336.89,2901.1 5338.07,2857.96 5319.53,2821.15C5300.99,2784.34 5292.52,2731.9 5351.26,2690.4C5410.01,2648.89 5449.12,2679.32 5490.58,2705.66C5532.04,2731.99 5544.99,2826.38 5486.11,2872.2C5393.26,2903.27 5412.13,2902.35 5385.51,2939.28C5345.66,2991.65 5240.14,3122.21 5211.2,3158.92C5182.26,3195.62 5167.91,3218.8 5213.32,3299.47C5237.93,3361.76 5173.01,3421.73 5133.03,3433.09C5093.06,3444.45 5013.63,3447.11 4989.99,3357.41C4966.34,3267.7 4949.9,3279.21 4882.88,3251.68C4815.87,3224.15 4624.48,3184.54 4445.24,3104.59C4266,3024.65 4105.74,2874.1 3889.12,2675.43C3803.74,2599.97 3632.6,2523.6 3518.82,2478.22C3405.05,2432.84 3140.66,2336.08 2922.93,2220.12C2830.99,2159.3 2497.24,1925.27 2383.84,1845.76C2270.43,1766.26 2071.27,1616.36 1930.12,1554.63C1788.97,1492.9 1536.61,1415.19 1458.24,1400.51C1379.86,1385.82 1316.6,1374.05 1250.13,1513.87C1225.84,1557.57 1166.73,1725.49 900.602,1821.1C851.503,1841.56 608.988,1884.92 482.081,1911.73C355.175,1938.54 153.024,1998.47 0.571,2073.2C-13.143,2040.35 -15.169,2028.15 -4.13,2003.38Z" style="fill:rgb(166,166,166);stroke:black;stroke-width:4.77px;"/>
    </g>
    <g transform="matrix(0.20957,0,0,0.20957,2.35401,-82.9047)">
        <g id="_75-3998-fellowship-dr" serif:id="75 3998-fellowship-dr">
            <path d="M897.617,1180.19L995.024,1313.28L890.352,1389.22L773.781,1259.19L813.734,1224.93L897.617,1180.19Z" style="fill:rgb(128,128,128);stroke:black;stroke-width:4.77px;"/>
        </g>
    </g>
    <g transform="matrix(0.20957,0,0,0.20957,2.35401,-82.9047)">
        <g id="_74-3897-fellowship-dr" serif:id="74 3897-fellowship-dr">
            <path d="M855.359,1165.34L823.656,1014.34L675.352,1039.44L709.688,1193.39L855.359,1165.34Z" style="fill:rgb(128,128,128);stroke:black;stroke-width:4.77px;"/>
        </g>
    </g>
    <g transform="matrix(0.20957,0,0,0.20957,2.35401,-82.9047)">
        <g id="_73-3887-fellowship-dr" serif:id="73 3887-fellowship-dr">
            <path d="M842.977,981.516L855.234,818.891L708.797,802.156L697.055,859.781L700.906,932.414L711.617,971.859L842.977,981.516Z" style="fill:rgb(128,128,128);stroke:black;stroke-width:4.77px;"/>
        </g>
    </g>
    <g transform="matrix(0.20957,0,0,0.20957,2.35401,-82.9047)">
        <g id="_72-3877-fellowship-dr" serif:id="72 3877-fellowship-dr">
            <path d="M922.883,650.641L893.742,690.117L910.164,704.414L853.664,790.883L731.539,717.18L747.492,690.852L735.336,678.969L805.938,583.344L830.008,598.914L840.781,579.422L922.883,650.641Z" style="fill:rgb(128,128,128);stroke:black;stroke-width:4.77px;"/>
        </g>
    </g>
    <g transform="matrix(0.20957,0,0,0.20957,2.35401,-82.9047)">
        <g id="_71-3867-fellowshp-dr" serif:id="71 3867-fellowshp-dr">
            <path d="M1038.06,579.477L1115.01,556.648L1113.87,535.598L1171.04,518.109L1138.29,395.594L978.727,438.645L980.43,488.609L1013.8,551.438L1028.02,550.512L1038.06,579.477Z" style="fill:rgb(128,128,128);stroke:black;stroke-width:4.77px;"/>
        </g>
    </g>
    <g transform="matrix(0.20957,0,0,0.20957,2.35401,-82.9047)">
        <g id="_70-3868-fellowship-dr" serif:id="70 3868-fellowship-dr">
            <path d="M1257.54,421.27L1202.37,550.77L1328.61,615.633L1391.29,496.727L1257.54,421.27Z" style="fill:rgb(128,128,128);stroke:black;stroke-width:4.77px;"/>
        </g>
    </g>
    <g transform="matrix(0.20957,0,0,0.20957,2.35401,-82.9047)">
        <g id="_69-3878-fellowship-dr" serif:id="69 3878-fellowship-dr">
            <path d="M1495.36,629.539L1517.2,763.391L1389.18,777.73L1365.57,643.359L1495.36,629.539Z" style="fill:rgb(128,128,128);stroke:black;stroke-width:4.77px;"/>
        </g>
    </g>
    <g transform="matrix(0.20957,0,0,0.20957,2.35401,-82.9047)">
        <g id="_68-3938-fellowship-dr" serif:id="68 3938-fellowship-dr">
            <path d="M1667.31,1170.58L1652.93,1164.79L1656.37,1150.59L1507.41,1114.16L1476.68,1244.98L1540.84,1263.76L1546.52,1248.39L1638.88,1267.8L1667.31,1170.58Z" style="fill:rgb(128,128,128);stroke:black;stroke-width:4.77px;"/>
        </g>
    </g>
    <g transform="matrix(0.20957,0,0,0.20957,2.35401,-82.9047)">
        <g id="_67-3012-jesse-mill-lane" serif:id="67 3012-jesse-mill-lane">
            <path d="M1650.31,899.484L1753.89,943.336L1701.88,1080.5L1596.83,1039.04L1650.31,899.484Z" style="fill:rgb(128,128,128);stroke:black;stroke-width:4.77px;"/>
        </g>
    </g>
    <g transform="matrix(0.20957,0,0,0.20957,2.35401,-82.9047)">
        <g id="_66-30222-jesse-mill-lane" serif:id="66 30222-jesse-mill-lane">
            <path d="M1665.31,833L1735.14,692.953L1841.64,745.855L1764.82,900.805L1681.07,859.016L1685.18,839.504L1665.31,833Z" style="fill:rgb(128,128,128);stroke:black;stroke-width:4.77px;"/>
        </g>
    </g>
    <g transform="matrix(0.20957,0,0,0.20957,2.35401,-82.9047)">
        <g id="_65-3023-jesse-mill-lane" serif:id="65 3023-jesse-mill-lane">
            <path d="M2206.17,898.625L2095.77,844.965L2032.24,991.816L2138.92,1037.32L2206.17,898.625Z" style="fill:rgb(128,128,128);stroke:black;stroke-width:4.77px;"/>
        </g>
    </g>
    <g transform="matrix(0.20957,0,0,0.20957,2.35401,-82.9047)">
        <g id="_64-3113-jesse-mill-lane" serif:id="64 3113-jesse-mill-lane">
            <path d="M2094.44,1232.26L2118.32,1182.11L2104.13,1169.61L2147.54,1074.12L2048.61,1029.21L2021.9,1081.4L2001.22,1075.69L1955.4,1171.16L2094.44,1232.26Z" style="fill:rgb(128,128,128);stroke:black;stroke-width:4.77px;"/>
        </g>
    </g>
    <g transform="matrix(0.20957,0,0,0.20957,2.35401,-82.9047)">
        <g id="_63-3003-jesse-mill-lane" serif:id="63 3003-jesse-mill-lane">
            <path d="M2100.24,1322.06L1962.81,1256L1947.48,1289.8L1931.07,1283.57L1900.57,1352.85L2052.18,1421.62L2100.24,1322.06Z" style="fill:rgb(128,128,128);stroke:black;stroke-width:4.77px;"/>
        </g>
    </g>
    <g transform="matrix(0.20957,0,0,0.20957,2.35401,-82.9047)">
        <g id="_62-3004-home-town-court" serif:id="62 3004-home-town-court">
            <path d="M2303.27,1397.71L2212.14,1342.02L2121.49,1480.51L2215.12,1539.97L2303.27,1397.71Z" style="fill:rgb(128,128,128);stroke:black;stroke-width:4.77px;"/>
        </g>
    </g>
    <g transform="matrix(0.20957,0,0,0.20957,2.35401,-82.9047)">
        <g id="_61-3014-home-twon-court" serif:id="61 3014-home-twon-court">
            <path d="M2406.27,1255.63L2326.15,1163.19L2212.29,1259.18L2295.86,1363.81L2373.66,1301.29L2364.02,1288.86L2406.27,1255.63Z" style="fill:rgb(128,128,128);stroke:black;stroke-width:4.77px;"/>
        </g>
    </g>
    <g transform="matrix(0.20957,0,0,0.20957,2.35401,-82.9047)">
        <g id="_60-3024-home-town-court" serif:id="60 3024-home-town-court">
            <path d="M2396.97,1072.25L2421.07,1211.52L2576.98,1178.64L2550.42,1044.14L2396.97,1072.25Z" style="fill:rgb(128,128,128);stroke:black;stroke-width:4.77px;"/>
        </g>
    </g>
    <g transform="matrix(0.20957,0,0,0.20957,2.35401,-82.9047)">
        <g id="_59-3034-home-town-court" serif:id="59 3034-home-town-court">
            <path d="M2650.27,1104.54L2606.53,1198.74L2734.35,1264.66L2781.64,1168.09L2650.27,1104.54Z" style="fill:rgb(128,128,128);stroke:black;stroke-width:4.77px;"/>
        </g>
    </g>
    <g transform="matrix(0.20957,0,0,0.20957,2.35401,-82.9047)">
        <g id="_58-3025-home-town-court" serif:id="58 3025-home-town-court">
            <path d="M2741.39,1299.26L2746.36,1364.75L2765.94,1364.51L2775.59,1445.79L2894.42,1433.19L2872,1285.43L2741.39,1299.26Z" style="fill:rgb(128,128,128);stroke:black;stroke-width:4.77px;"/>
        </g>
    </g>
    <g transform="matrix(0.20957,0,0,0.20957,2.35401,-82.9047)">
        <g id="_57-3015-home-town-court" serif:id="57 3015-home-town-court">
            <path d="M2856.51,1555.79L2784.29,1674.04L2664.03,1602.84L2728.3,1483.66L2856.51,1555.79Z" style="fill:rgb(128,128,128);stroke:black;stroke-width:4.77px;"/>
        </g>
    </g>
    <g transform="matrix(0.20957,0,0,0.20957,2.35401,-82.9047)">
        <g id="_56" serif:id="56">
            <path d="M2626.67,1702L2509.06,1598.49L2438.67,1683.36L2562.63,1779.35L2626.67,1702Z" style="fill:rgb(128,128,128);stroke:black;stroke-width:4.77px;"/>
        </g>
    </g>
    <g transform="matrix(0.20957,0,0,0.20957,2.35401,-82.9047)">
        <g id="_55-3998-fellowship-dr" serif:id="55 3998-fellowship-dr">
            <path d="M2791.22,1812.41L2711.72,1758.13L2702.83,1766.89L2652.96,1733.36L2606.4,1798.12L2739.49,1891.59L2791.22,1812.41Z" style="fill:rgb(128,128,128);stroke:black;stroke-width:4.77px;"/>
        </g>
    </g>
    <g transform="matrix(0.20957,0,0,0.20957,2.35401,-82.9047)">
        <g id="_54-3016-friendship-court" serif:id="54 3016-friendship-court">
            <path d="M2845.58,1840.57L2955.91,1920.53L2891.04,2013.22L2837.42,1980.7L2845.79,1966.17L2812.36,1943.59L2824.14,1927.87L2796.93,1908.69L2845.58,1840.57Z" style="fill:rgb(128,128,128);stroke:black;stroke-width:4.77px;"/>
        </g>
    </g>
    <g transform="matrix(0.20957,0,0,0.20957,2.35401,-82.9047)">
        <g id="_53-3026-friendship-court" serif:id="53 3026-friendship-court">
            <path d="M3047.24,1690.36L2959.33,1627.8L2870.77,1750.41L2954.7,1814.29L2965.05,1801.52L2977.9,1811.28L3010.11,1765.76L2996.59,1755.45L3047.24,1690.36Z" style="fill:rgb(128,128,128);stroke:black;stroke-width:4.77px;"/>
        </g>
    </g>
    <g transform="matrix(0.20957,0,0,0.20957,2.35401,-82.9047)">
        <g id="_52-3037-friendship-court" serif:id="52 3037-friendship-court">
            <path d="M3433.16,1643.25L3346.94,1691.08L3385.92,1755.61L3371.56,1767.52L3406.57,1826.59L3421.78,1818.57L3432.22,1832.66L3516.69,1787.52L3433.16,1643.25Z" style="fill:rgb(128,128,128);stroke:black;stroke-width:4.77px;"/>
        </g>
    </g>
    <g transform="matrix(0.20957,0,0,0.20957,2.35401,-82.9047)">
        <g id="_51-3027-friendship-court" serif:id="51 3027-friendship-court">
            <path d="M3522.26,1917.58L3481.81,2038.55L3377.73,2003.87L3396.78,1946.05L3379.64,1940.43L3395.18,1891.86L3422.6,1895.67L3426.78,1881.62L3522.26,1917.58Z" style="fill:rgb(128,128,128);stroke:black;stroke-width:4.77px;"/>
        </g>
    </g>
    <g transform="matrix(0.20957,0,0,0.20957,2.35401,-82.9047)">
        <g id="_50-3017-friendship-court" serif:id="50 3017-friendship-court">
            <path d="M3297.75,2095.45L3166.87,2045.25L3125.84,2145.35L3245.68,2189.56L3254.49,2169.55L3268.73,2174.68L3297.75,2095.45Z" style="fill:rgb(128,128,128);stroke:black;stroke-width:4.77px;"/>
        </g>
    </g>
    <g transform="matrix(0.20957,0,0,0.20957,2.35401,-82.9047)">
        <g id="_49-4038-fellowship-dr" serif:id="49 4038-fellowship-dr">
            <path d="M3350.62,2101.07L3402.92,2121.47L3408.02,2110.39L3441.9,2124.05L3434.36,2141L3464.43,2152.81L3462.01,2160.37L3485.81,2169.54L3453.7,2256.28L3399.51,2236.5L3395.11,2247.03L3380.03,2241.55L3373.94,2260.1L3316.14,2237L3324.07,2215.77L3308.63,2210.76L3350.62,2101.07Z" style="fill:rgb(128,128,128);stroke:black;stroke-width:4.77px;"/>
        </g>
    </g>
    <g transform="matrix(0.20957,0,0,0.20957,2.35401,-82.9047)">
        <g id="_48-4048-fellowship-dr" serif:id="48 4048-fellowship-dr">
            <path d="M3512.92,2195.48L3622.38,2237.5L3627.4,2225.75L3653.82,2236.94L3611.39,2349.32L3470.81,2295.79L3512.92,2195.48Z" style="fill:rgb(128,128,128);stroke:black;stroke-width:4.77px;"/>
        </g>
    </g>
    <g transform="matrix(0.20957,0,0,0.20957,2.35401,-82.9047)">
        <g id="_47" serif:id="47">
            <path d="M3693.25,2256.34L3647.17,2359.03L3780.14,2419.29L3828.69,2319L3693.25,2256.34Z" style="fill:rgb(128,128,128);stroke:black;stroke-width:4.77px;"/>
        </g>
    </g>
    <g transform="matrix(0.208466,0.0214863,-0.0214863,0.208466,88.7772,-143.662)">
        <g id="_46-4068-fellowship-dr" serif:id="46 4068-fellowship-dr">
            <path d="M3693.25,2256.34L3647.17,2359.03L3780.14,2419.29L3828.69,2319L3693.25,2256.34Z" style="fill:rgb(128,128,128);stroke:black;stroke-width:4.77px;"/>
        </g>
    </g>
    <g transform="matrix(0.20957,0,0,0.20957,2.35401,-82.9047)">
        <g id="_45-4078-fellowship-dr" serif:id="45 4078-fellowship-dr">
            <path d="M4051.38,2486.44L4163.49,2590.37L4106.83,2655.74L3990.71,2555.37L4051.38,2486.44Z" style="fill:rgb(128,128,128);stroke:black;stroke-width:4.77px;"/>
        </g>
    </g>
    <g transform="matrix(0.20957,0,0,0.20957,2.35401,-82.9047)">
        <g id="_44-4088-fellowship-dr" serif:id="44 4088-fellowship-dr">
            <path d="M4182.48,2609.94L4293.95,2711.52L4233.03,2776.75L4118.4,2673.31L4182.48,2609.94Z" style="fill:rgb(128,128,128);stroke:black;stroke-width:4.77px;"/>
        </g>
    </g>
    <g transform="matrix(0.20957,0,0,0.20957,2.35401,-82.9047)">
        <g id="_43-4098-fellowship-dr" serif:id="43 4098-fellowship-dr">
            <path d="M4478.43,2778.17L4385.75,2725.78L4319.63,2846.35L4406.8,2898.65L4478.43,2778.17Z" style="fill:rgb(128,128,128);stroke:black;stroke-width:4.77px;"/>
        </g>
    </g>
    <g transform="matrix(0.20957,0,0,0.20957,2.35401,-82.9047)">
        <g id="_42-3048-society-trace" serif:id="42 3048-society-trace">
            <path d="M4394.67,2674.2L4387.98,2537.03L4468.46,2534.04L4469.65,2543.98L4500.62,2544.93L4504,2668.74L4394.67,2674.2Z" style="fill:rgb(128,128,128);stroke:black;stroke-width:4.77px;"/>
        </g>
    </g>
    <g transform="matrix(0.20957,0,0,0.20957,2.35401,-82.9047)">
        <g id="_41-3068-society-trace" serif:id="41 3068-society-trace">
            <path d="M4432.6,2434.06L4369.6,2496.94L4267.29,2404.67L4330.63,2333.73L4348.17,2350.68C4353.21,2345.58 4357.13,2341.97 4359.78,2339.82L4398.62,2379.38L4389.47,2387.9L4432.6,2434.06Z" style="fill:rgb(128,128,128);stroke:black;stroke-width:4.77px;"/>
        </g>
    </g>
    <g transform="matrix(0.20957,0,0,0.20957,2.35401,-82.9047)">
        <g id="_40-3078-society-trace" serif:id="40 3078-society-trace">
            <path d="M4281.63,2317.59L4226.24,2410.29L4097.38,2337.36L4156.88,2242.21L4281.63,2317.59Z" style="fill:rgb(128,128,128);stroke:black;stroke-width:4.77px;"/>
        </g>
    </g>
    <g transform="matrix(0.20957,0,0,0.20957,2.35401,-82.9047)">
        <g id="_39-3088-society-trace" serif:id="39 3088-society-trace">
            <path d="M4083,2140.74L4033.44,2070.71L3936.23,2138.03L3979.31,2202.4L3955.72,2219.9L3977.52,2251.06L4007.66,2231.57L4024.17,2257.37L4102.95,2203.56L4067.71,2151.02L4083,2140.74Z" style="fill:rgb(128,128,128);stroke:black;stroke-width:4.77px;"/>
        </g>
    </g>
    <g transform="matrix(0.20957,0,0,0.20957,2.35401,-82.9047)">
        <g id="_38-3098-society-trace" serif:id="38 3098-society-trace">
            <path d="M4050.56,2032.96L3977.99,1974.35L4078.29,1859.61L4145.19,1921.5L4088.41,1988.69L4096.93,1996.02L4082.64,2013.78L4073.35,2008.53L4050.56,2032.96Z" style="fill:rgb(128,128,128);stroke:black;stroke-width:4.77px;"/>
        </g>
    </g>
    <g transform="matrix(0.142909,0.127885,-0.139752,0.15617,605.408,-563.962)">
        <g id="_37" serif:id="37">
            <rect id="_371" serif:id="37" x="4627.36" y="2099.44" width="168.227" height="110.754" style="fill:rgb(128,128,128);stroke:black;stroke-width:6.64px;"/>
        </g>
    </g>
    <g transform="matrix(0.0676682,0.179672,-0.195845,0.0737593,1108.9,-591.472)">
        <g id="_36" serif:id="36">
            <rect x="4627.36" y="2099.44" width="168.227" height="110.754" style="fill:rgb(128,128,128);stroke:black;stroke-width:6.64px;"/>
        </g>
    </g>
    <g transform="matrix(-0.00652777,0.191664,-0.209449,-0.0071335,1500.8,-431.785)">
        <g id="_35" serif:id="35">
            <rect x="4627.36" y="2099.44" width="168.227" height="110.754" style="fill:rgb(128,128,128);stroke:black;stroke-width:6.64px;"/>
        </g>
    </g>
    <g transform="matrix(-0.0352055,0.174055,-0.201883,-0.040834,1613.97,-236.043)">
        <g id="_34" serif:id="34">
            <rect x="4627.36" y="2099.44" width="168.227" height="110.754" style="fill:rgb(128,128,128);stroke:black;stroke-width:6.93px;"/>
        </g>
    </g>
    <g transform="matrix(0.20957,0,0,0.20957,2.35401,-82.9047)">
        <g id="_33" serif:id="33">
            <path d="M4805.88,3014.09L4789.27,3057.03L4653.88,3004.7L4711.14,2856.58L4846.53,2908.91L4828.51,2955.54L4857.16,2966.61L4834.53,3025.16L4805.88,3014.09Z" style="fill:rgb(128,128,128);stroke:black;stroke-width:6.36px;"/>
        </g>
    </g>
    <g transform="matrix(0.20957,0,0,0.20957,2.35401,-82.9047)">
        <g id="_32" serif:id="32">
            <path d="M5001.58,3116.28L4997.61,3126.55L4871.53,3077.81L4913.67,2968.8L5039.75,3017.54L5022.06,3063.32L5033.09,3067.58L5012.61,3120.55L5001.58,3116.28Z" style="fill:rgb(128,128,128);stroke:black;stroke-width:6.36px;"/>
        </g>
    </g>
    <g transform="matrix(0.20957,0,0,0.20957,2.35401,-82.9047)">
        <g id="_31" serif:id="31">
            <path d="M5173.73,2915.95L5150.2,2973.37L5051.94,2933.1L5110.69,2789.75L5208.95,2830.02L5194.92,2864.25L5206.87,2869.15L5185.68,2920.85L5173.73,2915.95Z" style="fill:rgb(128,128,128);stroke:black;stroke-width:6.36px;"/>
        </g>
    </g>
    <g transform="matrix(0.206864,0.0335726,-0.0335726,0.206864,130.503,-293.882)">
        <g id="_30" serif:id="30">
            <path d="M5173.73,2915.95L5150.2,2973.37L5051.94,2933.1L5110.69,2789.75L5208.95,2830.02L5194.92,2864.25L5206.87,2869.15L5185.68,2920.85L5173.73,2915.95Z" style="fill:rgb(128,128,128);stroke:black;stroke-width:6.36px;"/>
        </g>
    </g>
    <g transform="matrix(0.0319466,0.207121,-0.207121,0.0319466,1570.66,-700.3)">
        <g id="_29" serif:id="29">
            <path d="M5173.73,2915.95L5150.2,2973.37L5051.94,2933.1L5110.69,2789.75L5208.95,2830.02L5194.92,2864.25L5206.87,2869.15L5185.68,2920.85L5173.73,2915.95Z" style="fill:rgb(128,128,128);stroke:black;stroke-width:6.36px;"/>
        </g>
    </g>
    <g transform="matrix(-0.0490437,0.203751,-0.203751,-0.0490437,2013.91,-431.974)">
        <g id="_28" serif:id="28">
            <path d="M5173.73,2915.95L5150.2,2973.37L5051.94,2933.1L5110.69,2789.75L5208.95,2830.02L5194.92,2864.25L5206.87,2869.15L5185.68,2920.85L5173.73,2915.95Z" style="fill:rgb(128,128,128);stroke:black;stroke-width:6.36px;"/>
        </g>
    </g>
    <g transform="matrix(0.20957,0,0,0.20957,9.46548,-81.2904)">
        <g id="_27" serif:id="27">
            <path d="M5592.41,2773.37L5601.67,2753L5680.84,2789L5624.01,2913.97L5544.85,2877.97L5578.84,2803.22L5564.54,2796.72L5578.12,2766.87L5592.41,2773.37Z" style="fill:rgb(128,128,128);stroke:black;stroke-width:6.36px;"/>
        </g>
    </g>
    <g transform="matrix(0.190713,0.027249,-0.0244929,0.171423,169.89,-97.43)">
        <g id="_26" serif:id="26">
            <path d="M5592.41,2773.37L5601.67,2753L5680.84,2789L5624.01,2913.97L5544.85,2877.97L5578.84,2803.22L5564.54,2796.72L5578.12,2766.87L5592.41,2773.37Z" style="fill:rgb(128,128,128);stroke:black;stroke-width:7.28px;"/>
        </g>
    </g>
    <g transform="matrix(0.190713,0.027249,-0.0244929,0.171423,152.136,-75.0117)">
        <g id="_25" serif:id="25">
            <path d="M5592.41,2773.37L5601.67,2753L5680.84,2789L5624.01,2913.97L5544.85,2877.97L5578.84,2803.22L5564.54,2796.72L5578.12,2766.87L5592.41,2773.37Z" style="fill:rgb(128,128,128);stroke:black;stroke-width:7.28px;"/>
        </g>
    </g>
    <g transform="matrix(0.20957,0,0,0.20957,2.35401,-82.9047)">
        <g id="_24" serif:id="24">
            <path d="M5379.65,3161.94L5391.93,3144.78L5488.32,3213.77L5402.93,3333.09L5306.53,3264.1L5336.3,3222.51L5317.36,3208.95L5360.71,3148.38L5379.65,3161.94Z" style="fill:rgb(128,128,128);stroke:black;stroke-width:6.36px;"/>
        </g>
    </g>
    <g transform="matrix(0.20957,0,0,0.20957,-12.5309,-41.7007)">
        <g id="_23" serif:id="23">
            <path d="M5379.65,3161.94L5391.93,3144.78L5488.32,3213.77L5402.93,3333.09L5306.53,3264.1L5336.3,3222.51L5317.36,3208.95L5360.71,3148.38L5379.65,3161.94Z" style="fill:rgb(128,128,128);stroke:black;stroke-width:6.36px;"/>
        </g>
    </g>
    <g transform="matrix(0.189558,-0.0893737,0.0959221,0.203446,-231.482,406.763)">
        <g id="_22" serif:id="22">
            <rect x="5080.21" y="3503.26" width="156.359" height="117.898" style="fill:rgb(128,128,128);stroke:black;stroke-width:6.13px;"/>
        </g>
    </g>
    <g transform="matrix(0.20957,0,0,0.20957,2.35401,-82.9047)">
        <g id="_21" serif:id="21">
            <path d="M4958.6,3501.05L4962.58,3491.18L5014.91,3512.32L5010.92,3522.18L5049.96,3537.95L5016.6,3620.55L5002.2,3614.74L4996.88,3627.91L4944.55,3606.78L4949.88,3593.6L4876.75,3564.06L4910.12,3481.46L4958.6,3501.05Z" style="fill:rgb(128,128,128);stroke:black;stroke-width:6.36px;"/>
        </g>
    </g>
    <g transform="matrix(0.20957,0,0,0.20957,2.35401,-82.9047)">
        <g id="_20" serif:id="20">
            <path d="M4835.49,3365.55L4843.4,3346.07L4902.08,3369.88L4891.18,3396.74L4891.42,3396.84L4854.15,3488.68L4768.42,3453.89L4771.42,3446.51L4711.66,3422.26L4748.93,3330.42L4835.49,3365.55Z" style="fill:rgb(128,128,128);stroke:black;stroke-width:6.36px;"/>
        </g>
    </g>
    <g transform="matrix(0.24333,0.0732084,-0.0473149,0.157265,3.76002,-246.507)">
        <g id="_19" serif:id="19">
            <rect x="4562.16" y="3278.18" width="121.568" height="125.297" style="fill:rgb(128,128,128);stroke:black;stroke-width:6.23px;"/>
        </g>
    </g>
    <g transform="matrix(0.20957,0,0,0.20957,2.35401,-82.9047)">
        <g id="_18" serif:id="18">
            <path d="M4339.6,3280.07L4339.05,3279.85L4379.14,3181.67L4457.01,3213.47L4448.65,3233.94L4524.43,3264.88L4484.34,3363.06L4331.24,3300.54L4339.6,3280.07Z" style="fill:rgb(128,128,128);stroke:black;stroke-width:6.36px;"/>
        </g>
    </g>
    <g transform="matrix(0.20957,0,0,0.20957,2.35401,-82.9047)">
        <g id="_17" serif:id="17">
            <path d="M4211.91,3138.36L4225.91,3115.09L4336.32,3181.49L4276.96,3280.21L4263.21,3271.94L4262.89,3272.49L4152.47,3206.09L4198.16,3130.09L4211.91,3138.36Z" style="fill:rgb(128,128,128);stroke:black;stroke-width:6.36px;"/>
        </g>
    </g>
    <g transform="matrix(0.20957,0,0,0.20957,2.35401,-82.9047)">
        <g id="_16" serif:id="16">
            <path d="M4079.31,3000.24L4092.66,2983.98L4139.21,3022.17L4125.87,3038.43L4176.62,3080.06L4120.03,3149.06L4119.21,3148.38L4101.89,3169.49L3988.35,3076.36L4044.95,3007.37L4053.74,3014.58L4071.05,2993.47L4079.31,3000.24Z" style="fill:rgb(128,128,128);stroke:black;stroke-width:6.36px;"/>
        </g>
    </g>
    <g transform="matrix(0.229333,0.208081,-0.13805,0.152149,318.841,-738.184)">
        <g id="_15" serif:id="15">
            <rect x="3921.21" y="2856.91" width="119.958" height="131.339" style="fill:rgb(128,128,128);stroke:black;stroke-width:5.07px;"/>
        </g>
    </g>
    <g transform="matrix(0.15667,0.139192,-0.139192,0.15667,597.032,-459.316)">
        <g id="_14" serif:id="14">
            <rect x="3694.63" y="2748.6" width="180.206" height="131.883" style="fill:rgb(128,128,128);stroke:black;stroke-width:6.36px;"/>
        </g>
    </g>
    <g transform="matrix(0.183996,0.100325,-0.106217,0.194803,394.973,-409.593)">
        <g id="_13" serif:id="13">
            <rect x="3509.83" y="2677.3" width="168.578" height="127.781" style="fill:rgb(128,128,128);stroke:black;stroke-width:6.18px;"/>
        </g>
    </g>
    <g transform="matrix(0.20957,0,0,0.20957,2.35401,-82.9047)">
        <g id="_12" serif:id="12">
            <path d="M3451.33,2566.08L3457.26,2552.41L3514.41,2575.78L3508.91,2589.66L3557.59,2609.6L3518.37,2705.37L3360.77,2640.83L3399.99,2545.06L3451.33,2566.08Z" style="fill:rgb(128,128,128);stroke:black;stroke-width:6.36px;"/>
        </g>
    </g>
    <g transform="matrix(0.17341,0.0703282,-0.0877026,0.21625,346.526,-337.31)">
        <g id="_11" serif:id="11">
            <rect x="3187.01" y="2525.91" width="188.455" height="121.553" style="fill:rgb(128,128,128);stroke:black;stroke-width:6.3px;"/>
        </g>
    </g>
    <g transform="matrix(0.195542,0.0753863,-0.119651,0.310358,342.873,-573.316)">
        <g id="_10" serif:id="10">
            <rect x="3045.2" y="2460.12" width="159.773" height="81.289" style="fill:rgb(128,128,128);stroke:black;stroke-width:4.8px;"/>
        </g>
    </g>
    <g transform="matrix(0.20957,0,0,0.20957,2.35401,-82.9047)">
        <g id="_9" serif:id="9">
            <path d="M2883.76,2358.92L2896.16,2332.34L3022.17,2391.08L2986.16,2468.33L2981.84,2466.32L2969.45,2492.9L2834.49,2429.99L2870.5,2352.74L2883.76,2358.92Z" style="fill:rgb(128,128,128);stroke:black;stroke-width:6.36px;"/>
        </g>
    </g>
    <g transform="matrix(0.20957,0,0,0.20957,2.35401,-82.9047)">
        <g id="_8" serif:id="8">
            <path d="M2724.94,2233.38L2735.31,2217.36L2796.34,2256.89L2785.97,2272.91L2850.02,2314.39L2792.16,2403.72L2646.6,2309.44L2704.45,2220.11L2724.94,2233.38Z" style="fill:rgb(128,128,128);stroke:black;stroke-width:6.36px;"/>
        </g>
    </g>
    <g transform="matrix(0.207228,0.138332,-0.173529,0.259956,398.606,-559.237)">
        <g id="_7" serif:id="7">
            <rect x="2496.74" y="2182.15" width="151.981" height="92.07" style="fill:rgb(128,128,128);stroke:black;stroke-width:4.72px;"/>
        </g>
    </g>
    <g transform="matrix(0.230659,0.160613,-0.154538,0.221935,267.013,-490.433)">
        <g id="_6" serif:id="6">
            <rect x="2345.86" y="1996.33" width="151.58" height="108.436" style="fill:rgb(128,128,128);stroke:black;stroke-width:4.83px;"/>
        </g>
    </g>
    <g transform="matrix(0.20957,0,0,0.20957,2.35401,-82.9047)">
        <g id="_5" serif:id="5">
            <path d="M2209.35,1881.34L2223.14,1861.48L2311.02,1922.51L2297.22,1942.38L2352.11,1980.5L2286.65,2074.75L2135,1969.41L2200.46,1875.17L2209.35,1881.34Z" style="fill:rgb(128,128,128);stroke:black;stroke-width:6.36px;"/>
        </g>
    </g>
    <g transform="matrix(0.20957,0,0,0.20957,2.35401,-82.9047)">
        <g id="_4" serif:id="4">
            <path d="M2104.09,1799.56L2117.58,1780.4L2199.42,1839.6C2195.35,1846.29 2190.85,1852.68 2185.93,1858.76L2193.7,1863.6L2126.64,1958.88L1994.23,1865.69L2061.3,1770.41L2104.09,1799.56Z" style="fill:rgb(128,128,128);stroke:black;stroke-width:6.36px;"/>
        </g>
    </g>
    <g transform="matrix(0.20957,0,0,0.20957,2.35401,-82.9047)">
        <g id="_3" serif:id="3">
            <path d="M1900.52,1808.69L1832.75,1776.05L1893.7,1649.5L1997.81,1699.64L1984.52,1727.24L2037.85,1752.93L1990.2,1851.88L1900.52,1808.69L1900.52,1808.69Z" style="fill:rgb(128,128,128);stroke:black;stroke-width:6.36px;"/>
        </g>
    </g>
    <g transform="matrix(0.219575,0.0787768,-0.0919989,0.256429,133.281,-292.347)">
        <g id="_2" serif:id="2">
            <rect x="1685.96" y="1587.41" width="151.852" height="100.631" style="fill:rgb(128,128,128);stroke:black;stroke-width:5.26px;"/>
        </g>
    </g>
    <g transform="matrix(0.20957,0,0,0.20957,2.35401,-82.9047)">
        <g id="_1" serif:id="1">
            <path d="M1499.08,1528.36L1506.1,1504.47L1600.7,1532.29L1593.68,1556.18L1658.64,1575.29L1626.22,1685.54L1613.99,1681.95L1611.1,1691.77L1522.79,1665.8L1525.68,1655.98L1458.41,1636.2L1490.83,1525.94L1499.08,1528.36Z" style="fill:rgb(128,128,128);stroke:black;stroke-width:6.36px;"/>
        </g>
    </g>
    <g id="pool" transform="matrix(1,0,0,1,-2676,-1647.8)">
        <g transform="matrix(0.208325,0.0825804,-0.0764643,0.192896,2757.34,1468.66)">
            <rect x="1348.77" y="996.24" width="106.456" height="97.12" style="fill:rgb(128,128,128);stroke:black;stroke-width:6.17px;"/>
        </g>
        <g transform="matrix(0.305897,0.121258,-0.131651,0.332115,2683.15,1241.24)">
            <rect x="1348.77" y="996.24" width="106.456" height="97.12" style="fill:rgb(191,191,191);stroke:black;stroke-width:3.88px;"/>
        </g>
        <g transform="matrix(0.20957,0,0,0.20957,2678.35,1564.9)">
            <path d="M1374.1,900.357L1365.02,896.758L1384.11,848.603L1461.02,879.091L1441.93,927.246L1440.85,929.991L1452.15,934.471L1444.56,953.602L1456.53,958.347L1449.05,977.221L1460.94,981.937L1450.51,1008.27L1405.11,990.274L1405.28,989.855L1375.33,977.984L1340.86,964.32L1351.89,936.498L1358.7,939.2L1374.1,900.357Z" style="fill:rgb(0,214,255);stroke:black;stroke-width:6.36px;"/>
        </g>
        <g transform="matrix(0.20957,0,0,0.20957,2678.35,1564.9)">
            <path d="M3698.54,1603.85C3698.54,1603.85 3901.66,1692.54 3911.75,1697.16C3921.83,1701.77 3938.4,1706.04 3915.95,1753.66C3893.49,1801.29 3894.86,1765.43 3849.12,1843.91C3803.39,1922.4 3775.38,2003.08 3782.42,2041.69C3789.47,2080.31 3802.94,2121.54 3755.49,2118.42C3708.05,2115.3 3651.78,2084.27 3652.88,2047.23C3653.97,2010.19 3681.13,1896.09 3659.5,1791.54C3637.88,1686.98 3629.78,1660.91 3622.51,1641C3615.25,1621.09 3613,1583.35 3648.02,1614.39C3683.03,1645.43 3703.1,1625.86 3698.54,1603.85Z" style="fill:rgb(0,142,182);stroke:black;stroke-width:6.36px;"/>
        </g>
    </g>
</svg>
